<?xml version="1.0" encoding="UTF-8" standalone="no"?>
<!-- Created with Inkscape (http://www.inkscape.org/) -->

<svg
   xmlns:dc="http://purl.org/dc/elements/1.1/"
   xmlns:cc="http://creativecommons.org/ns#"
   xmlns:rdf="http://www.w3.org/1999/02/22-rdf-syntax-ns#"
   xmlns:svg="http://www.w3.org/2000/svg"
   xmlns="http://www.w3.org/2000/svg"
   xmlns:sodipodi="http://sodipodi.sourceforge.net/DTD/sodipodi-0.dtd"
   xmlns:inkscape="http://www.inkscape.org/namespaces/inkscape"
   width="2125.9841"
   height="1417.3228"
   id="svg2"
   version="1.1"
   inkscape:version="0.48.4 r9939"
   sodipodi:docname="RPIH-IESL-03.svg">
  <defs
     id="defs4" />
  <sodipodi:namedview
     id="base"
     pagecolor="#ffffff"
     bordercolor="#666666"
     borderopacity="1.0"
     inkscape:pageopacity="0.0"
     inkscape:pageshadow="2"
     inkscape:zoom="0.49497475"
     inkscape:cx="1291.3508"
     inkscape:cy="1098.2772"
     inkscape:document-units="mm"
     inkscape:current-layer="layer1"
     showgrid="false"
     units="mm"
     inkscape:window-width="1569"
     inkscape:window-height="959"
     inkscape:window-x="1417"
     inkscape:window-y="63"
     inkscape:window-maximized="0"
     inkscape:object-paths="true"
     inkscape:object-nodes="true" />
  <metadata
     id="metadata7">
    <rdf:RDF>
      <cc:Work
         rdf:about="">
        <dc:format>image/svg+xml</dc:format>
        <dc:type
           rdf:resource="http://purl.org/dc/dcmitype/StillImage" />
        <dc:title></dc:title>
      </cc:Work>
    </rdf:RDF>
  </metadata>
  <g
     inkscape:label="Layer 1"
     inkscape:groupmode="layer"
     id="layer1"
     transform="translate(0,364.96061)">
    <g
       id="g39011"
       transform="translate(69.427612,-275.05589)">
      <g
         transform="translate(-318.897,0)"
         id="g37785">
        <path
           d="m 617.18343,197.39184 c -2.9363,0 -5.315,-2.38 -5.315,-5.315 m 10.63,0 c 0,2.935 -2.3788,5.315 -5.315,5.315 m 0,-10.63 c 2.9362,0 5.315,2.3775 5.315,5.315 m -10.63,0 c 0,-2.9375 2.3787,-5.315 5.315,-5.315"
           style="fill:none;stroke:#000000;stroke-opacity:1"
           id="path37705"
           inkscape:connector-curvature="0" />
        <path
           inkscape:connector-curvature="0"
           id="path37707"
           style="fill:none;stroke:#000000;stroke-opacity:1"
           d="m 466.59318,376.3285 c -2.9363,0 -5.315,-2.38 -5.315,-5.315 m 10.63,0 c 0,2.935 -2.3788,5.315 -5.315,5.315 m 0,-10.63 c 2.9362,0 5.315,2.3775 5.315,5.315 m -10.63,0 c 0,-2.9375 2.3787,-5.315 5.315,-5.315" />
      </g>
      <path
         id="rect37789"
         transform="translate(0,-364.96061)"
         d="m 198.1875,510.84375 0,36.4375 -3.5625,0 0,24.8125 -56.6875,0 0,170.09375 c 0,1.96299 1.59951,3.53125 3.5625,3.53125 l 74.375,0 0,54.15625 28.375,0 0,-54.15625 42.53125,0 0,-24.8125 42.5,-31.875 0,-138.1875 c 0,-1.96299 -1.56826,-3.5625 -3.53125,-3.5625 l -53.15625,0 0,-36.4375 -74.40625,0 z"
         style="fill:none;stroke:#00ff00;stroke-width:1;stroke-miterlimit:4;stroke-opacity:1;stroke-dasharray:none"
         inkscape:connector-curvature="0" />
    </g>
    <g
       id="g38322"
       transform="translate(-130.77417,-294.61424)">
      <path
         transform="matrix(0.82126645,0,0,0.54434067,68.53083,89.799745)"
         d="m 396.98994,988.513 c 0,5.29997 -2.93969,9.59645 -6.56599,9.59645 -3.6263,0 -6.56599,-4.29648 -6.56599,-9.59645 0,-5.29997 2.93969,-9.59645 6.56599,-9.59645 3.6263,0 6.56599,4.29648 6.56599,9.59645 z"
         sodipodi:ry="9.5964489"
         sodipodi:rx="6.5659914"
         sodipodi:cy="988.513"
         sodipodi:cx="390.42395"
         id="path37806"
         style="fill:none;stroke:#000000;stroke-width:1;stroke-miterlimit:4;stroke-opacity:1;stroke-dasharray:none"
         sodipodi:type="arc" />
      <path
         sodipodi:type="arc"
         style="fill:none;stroke:#000000;stroke-width:1;stroke-miterlimit:4;stroke-opacity:1;stroke-dasharray:none"
         id="path37808"
         sodipodi:cx="390.42395"
         sodipodi:cy="988.513"
         sodipodi:rx="6.5659914"
         sodipodi:ry="9.5964489"
         d="m 396.98994,988.513 c 0,5.29997 -2.93969,9.59645 -6.56599,9.59645 -3.6263,0 -6.56599,-4.29648 -6.56599,-9.59645 0,-5.29997 2.93969,-9.59645 6.56599,-9.59645 3.6263,0 6.56599,4.29648 6.56599,9.59645 z"
         transform="matrix(0.82126645,0,0,0.54434067,118.13703,89.799745)" />
      <path
         sodipodi:type="arc"
         style="fill:none;stroke:#000000;stroke-width:1;stroke-miterlimit:4;stroke-opacity:1;stroke-dasharray:none"
         id="path37810"
         sodipodi:cx="390.42395"
         sodipodi:cy="988.513"
         sodipodi:rx="6.5659914"
         sodipodi:ry="9.5964489"
         d="m 396.98994,988.513 c 0,5.29997 -2.93969,9.59645 -6.56599,9.59645 -3.6263,0 -6.56599,-4.29648 -6.56599,-9.59645 0,-5.29997 2.93969,-9.59645 6.56599,-9.59645 3.6263,0 6.56599,4.29648 6.56599,9.59645 z"
         transform="matrix(0.82126645,0,0,0.54434067,68.53083,139.40594)" />
      <path
         transform="matrix(0.82126645,0,0,0.54434067,118.13703,139.40594)"
         d="m 396.98994,988.513 c 0,5.29997 -2.93969,9.59645 -6.56599,9.59645 -3.6263,0 -6.56599,-4.29648 -6.56599,-9.59645 0,-5.29997 2.93969,-9.59645 6.56599,-9.59645 3.6263,0 6.56599,4.29648 6.56599,9.59645 z"
         sodipodi:ry="9.5964489"
         sodipodi:rx="6.5659914"
         sodipodi:cy="988.513"
         sodipodi:cx="390.42395"
         id="path37812"
         style="fill:none;stroke:#000000;stroke-width:1;stroke-miterlimit:4;stroke-opacity:1;stroke-dasharray:none"
         sodipodi:type="arc" />
    </g>
    <path
       style="fill:none;stroke:#000000;stroke-width:2;stroke-linecap:round;stroke-linejoin:round;stroke-miterlimit:22.92600059999999829;stroke-opacity:1;stroke-dasharray:none"
       d="m 271.14732,-271.08158 c -9.81496,0 -17.71875,7.90379 -17.71875,17.71875 l 0,64.97365 -129.34375,0 c -9.815,0 -17.6875,7.9037 -17.6875,17.7188 l 0,364.9374 c 0,9.8188 7.8725,17.7188 17.6875,17.7188 l 364.96875,0 c 9.81625,0 17.71875,-7.9001 17.71875,-17.7188 l 0,-364.9374 c 0,-9.8151 -7.9025,-17.7188 -17.71875,-17.7188 l -129.3125,0 0,-64.97365 c 0,-9.81496 -7.90379,-17.71875 -17.71875,-17.71875 z"
       id="path38455"
       inkscape:connector-curvature="0"
       sodipodi:nodetypes="sscsssssssscsss" />
    <g
       id="g38457"
       transform="matrix(1.25,0,0,-1.25,129.41503,-154.73617)">
      <path
         d="m 0,0 c -4.699,0 -8.504,3.805 -8.504,8.504 0,4.695 3.805,8.504 8.504,8.504 4.696,0 8.504,-3.809 8.504,-8.504 C 8.504,3.805 4.696,0 0,0 z"
         style="fill:none;stroke:#110f0d;stroke-width:1.60000002;stroke-linecap:butt;stroke-linejoin:miter;stroke-miterlimit:4;stroke-opacity:1;stroke-dasharray:none"
         id="path38459"
         inkscape:connector-curvature="0" />
    </g>
    <g
       id="g38461"
       transform="matrix(1.25,0,0,-1.25,200.28051,-154.73617)">
      <path
         d="m 0,0 c -4.696,0 -8.504,3.805 -8.504,8.504 0,4.695 3.808,8.504 8.504,8.504 4.695,0 8.504,-3.809 8.504,-8.504 C 8.504,3.805 4.695,0 0,0 z"
         style="fill:none;stroke:#110f0d;stroke-width:1.60000002;stroke-linecap:butt;stroke-linejoin:miter;stroke-miterlimit:4;stroke-opacity:1;stroke-dasharray:none"
         id="path38463"
         inkscape:connector-curvature="0" />
    </g>
    <g
       id="g38465"
       transform="matrix(1.25,0,0,-1.25,271.14481,-154.73617)">
      <path
         d="m 0,0 c -4.695,0 -8.505,3.805 -8.505,8.504 0,4.695 3.81,8.504 8.505,8.504 4.698,0 8.504,-3.809 8.504,-8.504 C 8.504,3.805 4.698,0 0,0 z"
         style="fill:none;stroke:#110f0d;stroke-width:1.60000002;stroke-linecap:butt;stroke-linejoin:miter;stroke-miterlimit:4;stroke-opacity:1;stroke-dasharray:none"
         id="path38467"
         inkscape:connector-curvature="0" />
    </g>
    <g
       id="g38469"
       transform="matrix(1.25,0,0,-1.25,483.74471,-154.73617)">
      <path
         d="m 0,0 c -4.699,0 -8.504,3.805 -8.504,8.504 0,4.695 3.805,8.504 8.504,8.504 4.696,0 8.504,-3.809 8.504,-8.504 C 8.504,3.805 4.696,0 0,0 z"
         style="fill:none;stroke:#110f0d;stroke-width:1.60000002;stroke-linecap:butt;stroke-linejoin:miter;stroke-miterlimit:4;stroke-opacity:1;stroke-dasharray:none"
         id="path38471"
         inkscape:connector-curvature="0" />
    </g>
    <g
       id="g38473"
       transform="matrix(1.25,0,0,-1.25,129.41503,57.866449)">
      <path
         d="m 0,0 c -4.699,0 -8.504,3.809 -8.504,8.504 0,4.699 3.805,8.504 8.504,8.504 4.696,0 8.504,-3.805 8.504,-8.504 C 8.504,3.809 4.696,0 0,0 z"
         style="fill:none;stroke:#110f0d;stroke-width:1.60000002;stroke-linecap:butt;stroke-linejoin:miter;stroke-miterlimit:4;stroke-opacity:1;stroke-dasharray:none"
         id="path38475"
         inkscape:connector-curvature="0" />
    </g>
    <g
       id="g38477"
       transform="matrix(1.25,0,0,-1.25,483.74471,57.866449)">
      <path
         d="m 0,0 c -4.699,0 -8.504,3.809 -8.504,8.504 0,4.699 3.805,8.504 8.504,8.504 4.696,0 8.504,-3.805 8.504,-8.504 C 8.504,3.809 4.696,0 0,0 z"
         style="fill:none;stroke:#110f0d;stroke-width:1.60000002;stroke-linecap:butt;stroke-linejoin:miter;stroke-miterlimit:4;stroke-opacity:1;stroke-dasharray:none"
         id="path38479"
         inkscape:connector-curvature="0" />
    </g>
    <g
       id="g38481"
       transform="matrix(1.25,0,0,-1.25,129.41503,128.7307)">
      <path
         d="m 0,0 c -4.699,0 -8.504,3.809 -8.504,8.504 0,4.695 3.805,8.504 8.504,8.504 4.696,0 8.504,-3.809 8.504,-8.504 C 8.504,3.809 4.696,0 0,0 z"
         style="fill:none;stroke:#110f0d;stroke-width:1.60000002;stroke-linecap:butt;stroke-linejoin:miter;stroke-miterlimit:4;stroke-opacity:1;stroke-dasharray:none"
         id="path38483"
         inkscape:connector-curvature="0" />
    </g>
    <g
       id="g38485"
       transform="matrix(1.25,0,0,-1.25,483.74471,128.7307)">
      <path
         d="m 0,0 c -4.699,0 -8.504,3.809 -8.504,8.504 0,4.695 3.805,8.504 8.504,8.504 4.696,0 8.504,-3.809 8.504,-8.504 C 8.504,3.809 4.696,0 0,0 z"
         style="fill:none;stroke:#110f0d;stroke-width:1.60000002;stroke-linecap:butt;stroke-linejoin:miter;stroke-miterlimit:4;stroke-opacity:1;stroke-dasharray:none"
         id="path38487"
         inkscape:connector-curvature="0" />
    </g>
    <g
       id="g38489"
       transform="matrix(1.25,0,0,-1.25,129.41503,199.59493)">
      <path
         d="m 0,0 c -4.699,0 -8.504,3.805 -8.504,8.504 0,4.695 3.805,8.504 8.504,8.504 4.696,0 8.504,-3.809 8.504,-8.504 C 8.504,3.805 4.696,0 0,0 z"
         style="fill:none;stroke:#110f0d;stroke-width:1.60000002;stroke-linecap:butt;stroke-linejoin:miter;stroke-miterlimit:4;stroke-opacity:1;stroke-dasharray:none"
         id="path38491"
         inkscape:connector-curvature="0" />
    </g>
    <g
       id="g38493"
       transform="matrix(1.25,0,0,-1.25,200.28051,199.59493)">
      <path
         d="m 0,0 c -4.696,0 -8.504,3.805 -8.504,8.504 0,4.695 3.808,8.504 8.504,8.504 4.695,0 8.504,-3.809 8.504,-8.504 C 8.504,3.805 4.695,0 0,0 z"
         style="fill:none;stroke:#110f0d;stroke-width:1.60000002;stroke-linecap:butt;stroke-linejoin:miter;stroke-miterlimit:4;stroke-opacity:1;stroke-dasharray:none"
         id="path38495"
         inkscape:connector-curvature="0" />
    </g>
    <g
       id="g38497"
       transform="matrix(1.25,0,0,-1.25,271.14481,199.59493)">
      <path
         d="m 0,0 c -4.695,0 -8.505,3.805 -8.505,8.504 0,4.695 3.81,8.504 8.505,8.504 4.698,0 8.504,-3.809 8.504,-8.504 C 8.504,3.805 4.698,0 0,0 z"
         style="fill:none;stroke:#110f0d;stroke-width:1.60000002;stroke-linecap:butt;stroke-linejoin:miter;stroke-miterlimit:4;stroke-opacity:1;stroke-dasharray:none"
         id="path38499"
         inkscape:connector-curvature="0" />
    </g>
    <g
       id="g38501"
       transform="matrix(1.25,0,0,-1.25,483.74471,199.59493)">
      <path
         d="m 0,0 c -4.699,0 -8.504,3.805 -8.504,8.504 0,4.695 3.805,8.504 8.504,8.504 4.696,0 8.504,-3.809 8.504,-8.504 C 8.504,3.805 4.696,0 0,0 z"
         style="fill:none;stroke:#110f0d;stroke-width:1.60000002;stroke-linecap:butt;stroke-linejoin:miter;stroke-miterlimit:4;stroke-opacity:1;stroke-dasharray:none"
         id="path38503"
         inkscape:connector-curvature="0" />
    </g>
    <path
       d="m 175.47591,-160.04842 -21.26125,0 0,-10.63 21.26125,0 0,10.63 z"
       style="fill:none;stroke:#110f0d;stroke-width:2;stroke-linecap:butt;stroke-linejoin:miter;stroke-miterlimit:4;stroke-opacity:1;stroke-dasharray:none"
       id="path38505"
       inkscape:connector-curvature="0" />
    <path
       d="m 246.34341,-160.04842 -21.26,0 0,-10.63 21.26,0 0,10.63 z"
       style="fill:none;stroke:#110f0d;stroke-width:2;stroke-linecap:butt;stroke-linejoin:miter;stroke-miterlimit:4;stroke-opacity:1;stroke-dasharray:none"
       id="path38507"
       inkscape:connector-curvature="0" />
    <path
       d="m 317.20966,-160.04842 -21.26,0 0,-10.63 21.26,0 0,10.63 z"
       style="fill:none;stroke:#110f0d;stroke-width:2;stroke-linecap:butt;stroke-linejoin:miter;stroke-miterlimit:4;stroke-opacity:1;stroke-dasharray:none"
       id="path38509"
       inkscape:connector-curvature="0" />
    <path
       d="m 175.47591,194.28283 -21.26125,0 0,-10.63 21.26125,0 0,10.63 z"
       style="fill:none;stroke:#110f0d;stroke-width:2;stroke-linecap:butt;stroke-linejoin:miter;stroke-miterlimit:4;stroke-opacity:1;stroke-dasharray:none"
       id="path38511"
       inkscape:connector-curvature="0" />
    <path
       d="m 246.34341,194.28283 -21.26,0 0,-10.63 21.26,0 0,10.63 z"
       style="fill:none;stroke:#110f0d;stroke-width:2;stroke-linecap:butt;stroke-linejoin:miter;stroke-miterlimit:4;stroke-opacity:1;stroke-dasharray:none"
       id="path38513"
       inkscape:connector-curvature="0" />
    <path
       d="m 317.20966,194.28283 -21.26,0 0,-10.63 21.26,0 0,10.63 z"
       style="fill:none;stroke:#110f0d;stroke-width:2;stroke-linecap:butt;stroke-linejoin:miter;stroke-miterlimit:4;stroke-opacity:1;stroke-dasharray:none"
       id="path38515"
       inkscape:connector-curvature="0" />
    <path
       d="m 134.72716,22.431579 -10.63,0 0,-21.26 10.63,0 0,21.26 z"
       style="fill:none;stroke:#110f0d;stroke-width:2;stroke-linecap:butt;stroke-linejoin:miter;stroke-miterlimit:4;stroke-opacity:1;stroke-dasharray:none"
       id="path38517"
       inkscape:connector-curvature="0" />
    <g
       id="g38519"
       transform="matrix(1.25,0,0,-1.25,129.41503,-13.000301)">
      <path
         d="m 0,0 c -4.699,0 -8.504,3.809 -8.504,8.504 0,4.699 3.805,8.504 8.504,8.504 4.696,0 8.504,-3.805 8.504,-8.504 C 8.504,3.809 4.696,0 0,0 z"
         style="fill:none;stroke:#110f0d;stroke-width:1.60000002;stroke-linecap:butt;stroke-linejoin:miter;stroke-miterlimit:4;stroke-opacity:1;stroke-dasharray:none"
         id="path38521"
         inkscape:connector-curvature="0" />
    </g>
    <path
       d="m 134.72716,-48.434671 -10.63,0 0,-21.26 10.63,0 0,21.26 z"
       style="fill:none;stroke:#110f0d;stroke-width:2;stroke-linecap:butt;stroke-linejoin:miter;stroke-miterlimit:4;stroke-opacity:1;stroke-dasharray:none"
       id="path38523"
       inkscape:connector-curvature="0" />
    <path
       d="m 489.05666,22.431579 -10.63,0 0,-21.26 10.63,0 0,21.26 z"
       style="fill:none;stroke:#110f0d;stroke-width:2;stroke-linecap:butt;stroke-linejoin:miter;stroke-miterlimit:4;stroke-opacity:1;stroke-dasharray:none"
       id="path38525"
       inkscape:connector-curvature="0" />
    <g
       id="g38527"
       transform="matrix(1.25,0,0,-1.25,483.74471,-13.000301)">
      <path
         d="m 0,0 c -4.699,0 -8.504,3.809 -8.504,8.504 0,4.699 3.805,8.504 8.504,8.504 4.696,0 8.504,-3.805 8.504,-8.504 C 8.504,3.809 4.696,0 0,0 z"
         style="fill:none;stroke:#110f0d;stroke-width:1.60000002;stroke-linecap:butt;stroke-linejoin:miter;stroke-miterlimit:4;stroke-opacity:1;stroke-dasharray:none"
         id="path38529"
         inkscape:connector-curvature="0" />
    </g>
    <path
       d="m 489.05666,-48.434671 -10.63,0 0,-21.26 10.63,0 0,21.26 z"
       style="fill:none;stroke:#110f0d;stroke-width:2;stroke-linecap:butt;stroke-linejoin:miter;stroke-miterlimit:4;stroke-opacity:1;stroke-dasharray:none"
       id="path38531"
       inkscape:connector-curvature="0" />
    <g
       id="g38533"
       transform="matrix(1.25,0,0,-1.25,129.41503,-83.866921)">
      <path
         d="m 0,0 c -4.699,0 -8.504,3.809 -8.504,8.504 0,4.699 3.805,8.504 8.504,8.504 4.696,0 8.504,-3.805 8.504,-8.504 C 8.504,3.809 4.696,0 0,0 z"
         style="fill:none;stroke:#110f0d;stroke-width:1.60000002;stroke-linecap:butt;stroke-linejoin:miter;stroke-miterlimit:4;stroke-opacity:1;stroke-dasharray:none"
         id="path38535"
         inkscape:connector-curvature="0" />
    </g>
    <path
       d="m 134.72716,-119.30217 -10.63,0 0,-21.26 10.63,0 0,21.26 z"
       style="fill:none;stroke:#110f0d;stroke-width:2;stroke-linecap:butt;stroke-linejoin:miter;stroke-miterlimit:4;stroke-opacity:1;stroke-dasharray:none"
       id="path38537"
       inkscape:connector-curvature="0" />
    <g
       id="g38539"
       transform="matrix(1.25,0,0,-1.25,483.74471,-83.866921)">
      <path
         d="m 0,0 c -4.699,0 -8.504,3.809 -8.504,8.504 0,4.699 3.805,8.504 8.504,8.504 4.696,0 8.504,-3.805 8.504,-8.504 C 8.504,3.809 4.696,0 0,0 z"
         style="fill:none;stroke:#110f0d;stroke-width:1.60000002;stroke-linecap:butt;stroke-linejoin:miter;stroke-miterlimit:4;stroke-opacity:1;stroke-dasharray:none"
         id="path38541"
         inkscape:connector-curvature="0" />
    </g>
    <path
       d="m 489.05666,-119.30217 -10.63,0 0,-21.26 10.63,0 0,21.26 z"
       style="fill:none;stroke:#110f0d;stroke-width:2;stroke-linecap:butt;stroke-linejoin:miter;stroke-miterlimit:4;stroke-opacity:1;stroke-dasharray:none"
       id="path38543"
       inkscape:connector-curvature="0" />
    <path
       d="m 134.72716,93.296579 -10.63,0 0,-21.26 10.63,0 0,21.26 z"
       style="fill:none;stroke:#110f0d;stroke-width:2;stroke-linecap:butt;stroke-linejoin:miter;stroke-miterlimit:4;stroke-opacity:1;stroke-dasharray:none"
       id="path38545"
       inkscape:connector-curvature="0" />
    <path
       d="m 489.05666,93.296579 -10.63,0 0,-21.26 10.63,0 0,21.26 z"
       style="fill:none;stroke:#110f0d;stroke-width:2;stroke-linecap:butt;stroke-linejoin:miter;stroke-miterlimit:4;stroke-opacity:1;stroke-dasharray:none"
       id="path38547"
       inkscape:connector-curvature="0" />
    <path
       d="m 134.72716,164.16533 -10.63,0 0,-21.26 10.63,0 0,21.26 z"
       style="fill:none;stroke:#110f0d;stroke-width:2;stroke-linecap:butt;stroke-linejoin:miter;stroke-miterlimit:4;stroke-opacity:1;stroke-dasharray:none"
       id="path38549"
       inkscape:connector-curvature="0" />
    <path
       d="m 489.05666,164.16533 -10.63,0 0,-21.26 10.63,0 0,21.26 z"
       style="fill:none;stroke:#110f0d;stroke-width:2;stroke-linecap:butt;stroke-linejoin:miter;stroke-miterlimit:4;stroke-opacity:1;stroke-dasharray:none"
       id="path38551"
       inkscape:connector-curvature="0" />
    <g
       transform="matrix(1.25,0,0,-1.25,342.01081,-154.73617)"
       id="g38987">
      <path
         inkscape:connector-curvature="0"
         id="path38989"
         style="fill:none;stroke:#110f0d;stroke-width:1.60000002;stroke-linecap:butt;stroke-linejoin:miter;stroke-miterlimit:4;stroke-opacity:1;stroke-dasharray:none"
         d="m 0,0 c -4.695,0 -8.505,3.805 -8.505,8.504 0,4.695 3.81,8.504 8.505,8.504 4.698,0 8.504,-3.809 8.504,-8.504 C 8.504,3.805 4.698,0 0,0 z" />
    </g>
    <g
       transform="matrix(1.25,0,0,-1.25,342.01081,199.59493)"
       id="g38991">
      <path
         inkscape:connector-curvature="0"
         id="path38993"
         style="fill:none;stroke:#110f0d;stroke-width:1.60000002;stroke-linecap:butt;stroke-linejoin:miter;stroke-miterlimit:4;stroke-opacity:1;stroke-dasharray:none"
         d="m 0,0 c -4.695,0 -8.505,3.805 -8.505,8.504 0,4.695 3.81,8.504 8.505,8.504 4.698,0 8.504,-3.809 8.504,-8.504 C 8.504,3.805 4.698,0 0,0 z" />
    </g>
    <path
       inkscape:connector-curvature="0"
       id="path38995"
       style="fill:none;stroke:#110f0d;stroke-width:2;stroke-linecap:butt;stroke-linejoin:miter;stroke-miterlimit:4;stroke-opacity:1;stroke-dasharray:none"
       d="m 388.07566,-160.04842 -21.26,0 0,-10.63 21.26,0 0,10.63 z" />
    <path
       inkscape:connector-curvature="0"
       id="path38997"
       style="fill:none;stroke:#110f0d;stroke-width:2;stroke-linecap:butt;stroke-linejoin:miter;stroke-miterlimit:4;stroke-opacity:1;stroke-dasharray:none"
       d="m 388.07566,194.28283 -21.26,0 0,-10.63 21.26,0 0,10.63 z" />
    <g
       id="g38999"
       transform="matrix(1.25,0,0,-1.25,412.87681,-154.73617)">
      <path
         d="m 0,0 c -4.695,0 -8.505,3.805 -8.505,8.504 0,4.695 3.81,8.504 8.505,8.504 4.698,0 8.504,-3.809 8.504,-8.504 C 8.504,3.805 4.698,0 0,0 z"
         style="fill:none;stroke:#110f0d;stroke-width:1.60000002;stroke-linecap:butt;stroke-linejoin:miter;stroke-miterlimit:4;stroke-opacity:1;stroke-dasharray:none"
         id="path39001"
         inkscape:connector-curvature="0" />
    </g>
    <g
       id="g39003"
       transform="matrix(1.25,0,0,-1.25,412.87681,199.59493)">
      <path
         d="m 0,0 c -4.695,0 -8.505,3.805 -8.505,8.504 0,4.695 3.81,8.504 8.505,8.504 4.698,0 8.504,-3.809 8.504,-8.504 C 8.504,3.805 4.698,0 0,0 z"
         style="fill:none;stroke:#110f0d;stroke-width:1.60000002;stroke-linecap:butt;stroke-linejoin:miter;stroke-miterlimit:4;stroke-opacity:1;stroke-dasharray:none"
         id="path39005"
         inkscape:connector-curvature="0" />
    </g>
    <path
       d="m 458.94166,-160.04842 -21.26,0 0,-10.63 21.26,0 0,10.63 z"
       style="fill:none;stroke:#110f0d;stroke-width:2;stroke-linecap:butt;stroke-linejoin:miter;stroke-miterlimit:4;stroke-opacity:1;stroke-dasharray:none"
       id="path39007"
       inkscape:connector-curvature="0" />
    <path
       d="m 458.94166,194.28283 -21.26,0 0,-10.63 21.26,0 0,10.63 z"
       style="fill:none;stroke:#110f0d;stroke-width:2;stroke-linecap:butt;stroke-linejoin:miter;stroke-miterlimit:4;stroke-opacity:1;stroke-dasharray:none"
       id="path39009"
       inkscape:connector-curvature="0" />
    <g
       transform="matrix(1.25,0,0,-1.25,200.28103,-83.866921)"
       id="g39017">
      <path
         inkscape:connector-curvature="0"
         id="path39019"
         style="fill:none;stroke:#110f0d;stroke-width:1.60000002;stroke-linecap:butt;stroke-linejoin:miter;stroke-miterlimit:4;stroke-opacity:1;stroke-dasharray:none"
         d="m 0,0 c -4.699,0 -8.504,3.809 -8.504,8.504 0,4.699 3.805,8.504 8.504,8.504 4.696,0 8.504,-3.805 8.504,-8.504 C 8.504,3.809 4.696,0 0,0 z" />
    </g>
    <g
       id="g39021"
       transform="matrix(1.25,0,0,-1.25,200.28103,128.73108)">
      <path
         d="m 0,0 c -4.699,0 -8.504,3.809 -8.504,8.504 0,4.699 3.805,8.504 8.504,8.504 4.696,0 8.504,-3.805 8.504,-8.504 C 8.504,3.809 4.696,0 0,0 z"
         style="fill:none;stroke:#110f0d;stroke-width:1.60000002;stroke-linecap:butt;stroke-linejoin:miter;stroke-miterlimit:4;stroke-opacity:1;stroke-dasharray:none"
         id="path39023"
         inkscape:connector-curvature="0" />
    </g>
    <g
       transform="matrix(1.25,0,0,-1.25,412.87903,128.73108)"
       id="g39025">
      <path
         inkscape:connector-curvature="0"
         id="path39027"
         style="fill:none;stroke:#110f0d;stroke-width:1.60000002;stroke-linecap:butt;stroke-linejoin:miter;stroke-miterlimit:4;stroke-opacity:1;stroke-dasharray:none"
         d="m 0,0 c -4.699,0 -8.504,3.809 -8.504,8.504 0,4.699 3.805,8.504 8.504,8.504 4.696,0 8.504,-3.805 8.504,-8.504 C 8.504,3.809 4.696,0 0,0 z" />
    </g>
    <g
       id="g39029"
       transform="matrix(1.25,0,0,-1.25,412.87903,-83.866921)">
      <path
         d="m 0,0 c -4.699,0 -8.504,3.809 -8.504,8.504 0,4.699 3.805,8.504 8.504,8.504 4.696,0 8.504,-3.805 8.504,-8.504 C 8.504,3.809 4.696,0 0,0 z"
         style="fill:none;stroke:#110f0d;stroke-width:1.60000002;stroke-linecap:butt;stroke-linejoin:miter;stroke-miterlimit:4;stroke-opacity:1;stroke-dasharray:none"
         id="path39031"
         inkscape:connector-curvature="0" />
    </g>
    <path
       inkscape:connector-curvature="0"
       id="path39033"
       style="fill:none;stroke:#110f0d;stroke-width:2;stroke-linecap:butt;stroke-linejoin:miter;stroke-miterlimit:4;stroke-opacity:1;stroke-dasharray:none"
       d="m 458.94166,-89.182421 -21.26,0 0,-10.63 21.26,0 0,10.63 z" />
    <path
       d="m 458.94166,123.41558 -21.26,0 0,-10.63 21.26,0 0,10.63 z"
       style="fill:none;stroke:#110f0d;stroke-width:2;stroke-linecap:butt;stroke-linejoin:miter;stroke-miterlimit:4;stroke-opacity:1;stroke-dasharray:none"
       id="path39035"
       inkscape:connector-curvature="0" />
    <path
       inkscape:connector-curvature="0"
       id="path39037"
       style="fill:none;stroke:#110f0d;stroke-width:2;stroke-linecap:butt;stroke-linejoin:miter;stroke-miterlimit:4;stroke-opacity:1;stroke-dasharray:none"
       d="m 418.19066,164.16533 -10.63,0 0,-21.26 10.63,0 0,21.26 z" />
    <path
       d="m 205.59266,164.16533 -10.63,0 0,-21.26 10.63,0 0,21.26 z"
       style="fill:none;stroke:#110f0d;stroke-width:2;stroke-linecap:butt;stroke-linejoin:miter;stroke-miterlimit:4;stroke-opacity:1;stroke-dasharray:none"
       id="path39039"
       inkscape:connector-curvature="0" />
    <path
       inkscape:connector-curvature="0"
       id="path39041"
       style="fill:none;stroke:#110f0d;stroke-width:2;stroke-linecap:butt;stroke-linejoin:miter;stroke-miterlimit:4;stroke-opacity:1;stroke-dasharray:none"
       d="m 205.59266,-119.29867 -10.63,0 0,-21.26 10.63,0 0,21.26 z" />
    <path
       d="m 418.19066,-119.29867 -10.63,0 0,-21.26 10.63,0 0,21.26 z"
       style="fill:none;stroke:#110f0d;stroke-width:2;stroke-linecap:butt;stroke-linejoin:miter;stroke-miterlimit:4;stroke-opacity:1;stroke-dasharray:none"
       id="path39043"
       inkscape:connector-curvature="0" />
    <path
       inkscape:connector-curvature="0"
       id="path39045"
       style="fill:none;stroke:#110f0d;stroke-width:2;stroke-linecap:butt;stroke-linejoin:miter;stroke-miterlimit:4;stroke-opacity:1;stroke-dasharray:none"
       d="m 175.47591,-89.182421 -21.26125,0 0,-10.63 21.26125,0 0,10.63 z" />
    <path
       d="m 175.47591,123.41558 -21.26125,0 0,-10.63 21.26125,0 0,10.63 z"
       style="fill:none;stroke:#110f0d;stroke-width:2;stroke-linecap:butt;stroke-linejoin:miter;stroke-miterlimit:4;stroke-opacity:1;stroke-dasharray:none"
       id="path39047"
       inkscape:connector-curvature="0" />
    <path
       d="m 182.56178,-46.664831 c -2.9363,0 -5.315,-2.38 -5.315,-5.315 m 10.63,0 c 0,2.935 -2.3788,5.315 -5.315,5.315 m 0,-10.63 c 2.9362,0 5.315,2.37751 5.315,5.31501 m -10.63,0 c 0,-2.9375 2.3787,-5.31501 5.315,-5.31501"
       style="fill:none;stroke:#000000;stroke-opacity:1"
       id="path39049"
       inkscape:connector-curvature="0" />
    <path
       inkscape:connector-curvature="0"
       id="path39051"
       style="fill:none;stroke:#000000;stroke-opacity:1"
       d="m 182.56178,80.893969 c -2.9363,0 -5.315,-2.38 -5.315,-5.315 m 10.63,0 c 0,2.935 -2.3788,5.315 -5.315,5.315 m 0,-10.63 c 2.9362,0 5.315,2.3775 5.315,5.315 m -10.63,0 c 0,-2.9375 2.3787,-5.315 5.315,-5.315" />
    <path
       inkscape:connector-curvature="0"
       id="path39059"
       style="fill:none;stroke:#000000;stroke-opacity:1"
       d="m 430.59278,-46.664831 c -2.9363,0 -5.315,-2.38 -5.315,-5.315 m 10.63,0 c 0,2.935 -2.3788,5.315 -5.315,5.315 m 0,-10.63 c 2.9362,0 5.315,2.37751 5.315,5.31501 m -10.63,0 c 0,-2.9375 2.3787,-5.31501 5.315,-5.31501" />
    <path
       d="m 430.59278,80.893969 c -2.9363,0 -5.315,-2.38 -5.315,-5.315 m 10.63,0 c 0,2.935 -2.3788,5.315 -5.315,5.315 m 0,-10.63 c 2.9362,0 5.315,2.3775 5.315,5.315 m -10.63,0 c 0,-2.9375 2.3787,-5.315 5.315,-5.315"
       style="fill:none;stroke:#000000;stroke-opacity:1"
       id="path39061"
       inkscape:connector-curvature="0" />
    <path
       inkscape:connector-curvature="0"
       id="path39065"
       style="fill:none;stroke:#000000;stroke-opacity:1"
       d="m 159.18635,299.61203 c -2.9363,0 -5.315,-2.38 -5.315,-5.315 m 10.63,0 c 0,2.935 -2.3788,5.315 -5.315,5.315 m 0,-10.63 c 2.9362,0 5.315,2.37751 5.315,5.31501 m -10.63,0 c 0,-2.9375 2.3787,-5.31501 5.315,-5.31501" />
    <path
       d="m 159.18635,427.17083 c -2.9363,0 -5.315,-2.38 -5.315,-5.315 m 10.63,0 c 0,2.935 -2.3788,5.315 -5.315,5.315 m 0,-10.63 c 2.9362,0 5.315,2.3775 5.315,5.315 m -10.63,0 c 0,-2.9375 2.3787,-5.315 5.315,-5.315"
       style="fill:none;stroke:#000000;stroke-opacity:1"
       id="path39067"
       inkscape:connector-curvature="0" />
    <path
       d="m 407.21734,299.61203 c -2.9363,0 -5.315,-2.38 -5.315,-5.315 m 10.63,0 c 0,2.935 -2.3788,5.315 -5.315,5.315 m 0,-10.63 c 2.9362,0 5.315,2.37751 5.315,5.31501 m -10.63,0 c 0,-2.9375 2.3787,-5.31501 5.315,-5.31501"
       style="fill:none;stroke:#000000;stroke-opacity:1"
       id="path39071"
       inkscape:connector-curvature="0" />
    <path
       inkscape:connector-curvature="0"
       id="path39073"
       style="fill:none;stroke:#000000;stroke-opacity:1"
       d="m 407.21734,427.17083 c -2.9363,0 -5.315,-2.38 -5.315,-5.315 m 10.63,0 c 0,2.935 -2.3788,5.315 -5.315,5.315 m 0,-10.63 c 2.9362,0 5.315,2.3775 5.315,5.315 m -10.63,0 c 0,-2.9375 2.3787,-5.315 5.315,-5.315" />
    <path
       style="fill:none;stroke:#000000;stroke-width:1.07941616;stroke-miterlimit:4;stroke-opacity:1"
       d="m 159.19196,276.57915 c -9.81496,0 -17.71875,7.9037 -17.71875,17.7187 l 0,127.5501 c 0,9.8148 7.90379,17.7187 17.71875,17.7187 9.81496,0 17.71875,-7.9039 17.71875,-17.7187 l 0,-28.3532 67.37503,0 c 9.6225,10.5697 23.4867,17.1875 38.9062,17.1875 15.4196,0 29.2838,-6.618 38.9063,-17.1875 l 67.4063,0 0,28.3532 c 0,9.8148 7.9037,17.7187 17.7187,17.7187 9.815,0 17.7187,-7.9039 17.7187,-17.7187 l 0,-127.5501 c 0,-9.815 -7.9037,-17.7187 -17.7187,-17.7187 -9.815,0 -17.7187,7.9037 -17.7187,17.7187 l 0,28.3532 -67.4376,0 c -9.6213,-10.5507 -23.4712,-17.1876 -38.875,-17.1876 -15.4039,0 -29.2536,6.6365 -38.875,17.1876 l -67.40623,0 0,-28.3532 c 0,-9.815 -7.90379,-17.7187 -17.71875,-17.7187 z"
       id="path39089"
       inkscape:connector-curvature="0"
       sodipodi:nodetypes="sssssccsccssssssccsccss" />
    <path
       inkscape:connector-curvature="0"
       style="fill:none;stroke:#000000;stroke-width:1;stroke-miterlimit:4;stroke-opacity:1;stroke-dasharray:none"
       d="m 1366.424,-294.9588 0,12.125 -30.125,0 0,0.3438 -10.625,0 0,234.375 10.25,10.25 -244.5937,0 0,30.125 -12.125,0 0,21.2812 12.125,0 0,49.5938 -12.125,0 0,21.25 12.125,0 0,49.625 -12.125,0 0,21.25 12.125,0 0,49.5938 -12.125,0 0,21.2812 12.125,0 0,49.5938 -12.125,0 0,21.25 12.125,0 0,30.125 244.9687,0 -10.625,10.625 0,234.375 10.625,0 3.5313,0 26.5937,0 0,12.125 21.2813,0 0,-12.125 49.5937,0 0,12.125 21.25,0 0,-12.125 49.625,0 0,12.125 21.25,0 0,-12.125 49.5938,0 0,12.125 21.2812,0 0,-12.125 49.5938,0 0,12.125 21.25,0 0,-12.125 26.5937,0 3.5313,0 10.625,0 0,-234.375 -10.5938,-10.5938 244.9688,0 0,-30.125 12.125,0 0,-21.2812 -12.125,0 0,-49.5938 12.125,0 0,-21.25 -12.125,0 0,-49.625 12.125,0 0,-21.25 -12.125,0 0,-49.5938 12.125,0 0,-21.2812 -12.125,0 0,-49.5938 12.125,0 0,-21.25 -12.125,0 0,-30.125 -245,0 10.625,-10.625 0,-234.375 -10.625,0 -3.5313,0 -26.5937,0 0,-12.125 -21.2813,0 0,12.125 -49.5937,0 0,-12.125 -21.25,0 0,12.125 -49.625,0 0,-12.125 -21.25,0 0,12.125 -49.5938,0 0,-12.125 -21.2812,0 0,12.125 -49.5938,0 0,-12.125 -21.25,0 z"
       id="rect39139" />
    <path
       style="fill:none;stroke:#00ff00;stroke-width:1px;stroke-linecap:butt;stroke-linejoin:miter;stroke-opacity:1"
       d="m 1336.3166,326.6099 364.9607,0"
       id="path39145"
       inkscape:connector-curvature="0" />
    <path
       inkscape:connector-curvature="0"
       id="path39147"
       d="m 1336.3166,-38.35 364.9607,0"
       style="fill:none;stroke:#00ff00;stroke-width:1px;stroke-linecap:butt;stroke-linejoin:miter;stroke-opacity:1" />
    <g
       id="g39153"
       transform="matrix(0,-1,1,0,172.5256,329.4674)"
       style="stroke:#00ff00;stroke-opacity:1">
      <path
         style="fill:none;stroke:#00ff00;stroke-width:1px;stroke-linecap:butt;stroke-linejoin:miter;stroke-opacity:1"
         d="m 2.8571429,1528.7513 364.9606371,0"
         id="path39149"
         inkscape:connector-curvature="0" />
      <path
         inkscape:connector-curvature="0"
         id="path39151"
         d="m 2.8571429,1163.7914 364.9606371,0"
         style="fill:none;stroke:#00ff00;stroke-width:1px;stroke-linecap:butt;stroke-linejoin:miter;stroke-opacity:1" />
    </g>
    <g
       id="g39199"
       transform="translate(1864.9545,-1202.1414)">
      <g
         id="g39201"
         transform="matrix(1.25,0,0,-1.25,-452.4568,1250.6049)">
        <path
           d="m 0,0 c -4.699,0 -8.504,3.809 -8.504,8.504 0,4.699 3.805,8.504 8.504,8.504 4.696,0 8.504,-3.805 8.504,-8.504 C 8.504,3.809 4.696,0 0,0 z"
           style="fill:none;stroke:#110f0d;stroke-width:1.60000002;stroke-linecap:butt;stroke-linejoin:miter;stroke-miterlimit:4;stroke-opacity:1;stroke-dasharray:none"
           id="path39203"
           inkscape:connector-curvature="0" />
      </g>
      <g
         transform="matrix(1.25,0,0,-1.25,-452.4568,1463.2029)"
         id="g39205">
        <path
           inkscape:connector-curvature="0"
           id="path39207"
           style="fill:none;stroke:#110f0d;stroke-width:1.60000002;stroke-linecap:butt;stroke-linejoin:miter;stroke-miterlimit:4;stroke-opacity:1;stroke-dasharray:none"
           d="m 0,0 c -4.699,0 -8.504,3.809 -8.504,8.504 0,4.699 3.805,8.504 8.504,8.504 4.696,0 8.504,-3.805 8.504,-8.504 C 8.504,3.809 4.696,0 0,0 z" />
      </g>
      <g
         id="g39209"
         transform="matrix(1.25,0,0,-1.25,-239.8588,1463.2029)">
        <path
           d="m 0,0 c -4.699,0 -8.504,3.809 -8.504,8.504 0,4.699 3.805,8.504 8.504,8.504 4.696,0 8.504,-3.805 8.504,-8.504 C 8.504,3.809 4.696,0 0,0 z"
           style="fill:none;stroke:#110f0d;stroke-width:1.60000002;stroke-linecap:butt;stroke-linejoin:miter;stroke-miterlimit:4;stroke-opacity:1;stroke-dasharray:none"
           id="path39211"
           inkscape:connector-curvature="0" />
      </g>
      <g
         transform="matrix(1.25,0,0,-1.25,-239.8588,1250.6049)"
         id="g39213">
        <path
           inkscape:connector-curvature="0"
           id="path39215"
           style="fill:none;stroke:#110f0d;stroke-width:1.60000002;stroke-linecap:butt;stroke-linejoin:miter;stroke-miterlimit:4;stroke-opacity:1;stroke-dasharray:none"
           d="m 0,0 c -4.699,0 -8.504,3.809 -8.504,8.504 0,4.699 3.805,8.504 8.504,8.504 4.696,0 8.504,-3.805 8.504,-8.504 C 8.504,3.809 4.696,0 0,0 z" />
      </g>
    </g>
    <path
       inkscape:connector-curvature="0"
       style="fill:none;stroke:#000000;stroke-width:0.34724587;stroke-miterlimit:4;stroke-opacity:1"
       d="m 1532.9624,521.71063 c 0,7.78782 -6.3463,14.10109 -14.1748,14.10109 -7.8285,0 -14.1747,-6.31327 -14.1747,-14.10109 0,-7.78782 6.3462,-14.10108 14.1747,-14.10108 7.8285,0 14.1748,6.31326 14.1748,14.10108 z"
       id="path39242" />
    <g
       id="g39266"
       transform="translate(1333.4688,-1207.6756)">
      <path
         inkscape:connector-curvature="0"
         transform="matrix(0.171951,0,0,0.17194013,89.895321,1122.3907)"
         style="fill:none;stroke:#000000;stroke-width:1;stroke-miterlimit:4;stroke-opacity:1"
         d="m 595.71429,1849.4656 c 0,22.4859 -18.22841,40.7143 -40.71429,40.7143 -22.48588,0 -40.71429,-18.2284 -40.71429,-40.7143 0,-22.4859 18.22841,-40.7143 40.71429,-40.7143 22.48588,0 40.71429,18.2284 40.71429,40.7143 z"
         id="path39262" />
      <path
         inkscape:connector-curvature="0"
         transform="matrix(0.171951,0,0,0.17194013,89.895321,945.2257)"
         style="fill:none;stroke:#000000;stroke-width:1;stroke-miterlimit:4;stroke-opacity:1"
         d="m 595.71429,1849.4656 c 0,22.4859 -18.22841,40.7143 -40.71429,40.7143 -22.48588,0 -40.71429,-18.2284 -40.71429,-40.7143 0,-22.4859 18.22841,-40.7143 40.71429,-40.7143 22.48588,0 40.71429,18.2284 40.71429,40.7143 z"
         id="path39264" />
    </g>
    <g
       transform="matrix(0.96592583,-0.25881905,0.25881905,0.96592583,989.9107,-1113.6475)"
       id="g39270">
      <path
         inkscape:connector-curvature="0"
         transform="matrix(0.171951,0,0,0.17194013,89.895321,1122.3907)"
         style="fill:none;stroke:#000000;stroke-width:1;stroke-miterlimit:4;stroke-opacity:1"
         d="m 595.71429,1849.4656 c 0,22.4859 -18.22841,40.7143 -40.71429,40.7143 -22.48588,0 -40.71429,-18.2284 -40.71429,-40.7143 0,-22.4859 18.22841,-40.7143 40.71429,-40.7143 22.48588,0 40.71429,18.2284 40.71429,40.7143 z"
         id="path39272" />
      <path
         inkscape:connector-curvature="0"
         transform="matrix(0.171951,0,0,0.17194013,89.895321,945.2257)"
         style="fill:none;stroke:#000000;stroke-width:1;stroke-miterlimit:4;stroke-opacity:1"
         d="m 595.71429,1849.4656 c 0,22.4859 -18.22841,40.7143 -40.71429,40.7143 -22.48588,0 -40.71429,-18.2284 -40.71429,-40.7143 0,-22.4859 18.22841,-40.7143 40.71429,-40.7143 22.48588,0 40.71429,18.2284 40.71429,40.7143 z"
         id="path39274" />
    </g>
    <g
       id="g39276"
       transform="matrix(0.86602541,-0.50000001,0.50000001,0.86602541,682.3953,-933.90394)">
      <path
         inkscape:connector-curvature="0"
         transform="matrix(0.171951,0,0,0.17194013,89.895321,1122.3907)"
         style="fill:none;stroke:#000000;stroke-width:1;stroke-miterlimit:4;stroke-opacity:1"
         d="m 595.71429,1849.4656 c 0,22.4859 -18.22841,40.7143 -40.71429,40.7143 -22.48588,0 -40.71429,-18.2284 -40.71429,-40.7143 0,-22.4859 18.22841,-40.7143 40.71429,-40.7143 22.48588,0 40.71429,18.2284 40.71429,40.7143 z"
         id="path39278" />
      <path
         inkscape:connector-curvature="0"
         transform="matrix(0.171951,0,0,0.17194013,89.895321,945.2257)"
         style="fill:none;stroke:#000000;stroke-width:1;stroke-miterlimit:4;stroke-opacity:1"
         d="m 595.71429,1849.4656 c 0,22.4859 -18.22841,40.7143 -40.71429,40.7143 -22.48588,0 -40.71429,-18.2284 -40.71429,-40.7143 0,-22.4859 18.22841,-40.7143 40.71429,-40.7143 22.48588,0 40.71429,18.2284 40.71429,40.7143 z"
         id="path39280" />
    </g>
    <g
       transform="matrix(0.70710678,-0.70710679,0.70710679,0.70710678,431.87929,-680.69415)"
       id="g39282">
      <path
         inkscape:connector-curvature="0"
         transform="matrix(0.171951,0,0,0.17194013,89.895321,1122.3907)"
         style="fill:none;stroke:#000000;stroke-width:1;stroke-miterlimit:4;stroke-opacity:1"
         d="m 595.71429,1849.4656 c 0,22.4859 -18.22841,40.7143 -40.71429,40.7143 -22.48588,0 -40.71429,-18.2284 -40.71429,-40.7143 0,-22.4859 18.22841,-40.7143 40.71429,-40.7143 22.48588,0 40.71429,18.2284 40.71429,40.7143 z"
         id="path39284" />
      <path
         inkscape:connector-curvature="0"
         transform="matrix(0.171951,0,0,0.17194013,89.895321,945.2257)"
         style="fill:none;stroke:#000000;stroke-width:1;stroke-miterlimit:4;stroke-opacity:1"
         d="m 595.71429,1849.4656 c 0,22.4859 -18.22841,40.7143 -40.71429,40.7143 -22.48588,0 -40.71429,-18.2284 -40.71429,-40.7143 0,-22.4859 18.22841,-40.7143 40.71429,-40.7143 22.48588,0 40.71429,18.2284 40.71429,40.7143 z"
         id="path39286" />
    </g>
    <g
       id="g39288"
       transform="matrix(0.5,-0.86602541,0.86602541,0.5,255.4349,-371.274)">
      <path
         inkscape:connector-curvature="0"
         transform="matrix(0.171951,0,0,0.17194013,89.895321,1122.3907)"
         style="fill:none;stroke:#000000;stroke-width:1;stroke-miterlimit:4;stroke-opacity:1"
         d="m 595.71429,1849.4656 c 0,22.4859 -18.22841,40.7143 -40.71429,40.7143 -22.48588,0 -40.71429,-18.2284 -40.71429,-40.7143 0,-22.4859 18.22841,-40.7143 40.71429,-40.7143 22.48588,0 40.71429,18.2284 40.71429,40.7143 z"
         id="path39290" />
      <path
         inkscape:connector-curvature="0"
         transform="matrix(0.171951,0,0,0.17194013,89.895321,945.2257)"
         style="fill:none;stroke:#000000;stroke-width:1;stroke-miterlimit:4;stroke-opacity:1"
         d="m 595.71429,1849.4656 c 0,22.4859 -18.22841,40.7143 -40.71429,40.7143 -22.48588,0 -40.71429,-18.2284 -40.71429,-40.7143 0,-22.4859 18.22841,-40.7143 40.71429,-40.7143 22.48588,0 40.71429,18.2284 40.71429,40.7143 z"
         id="path39292" />
    </g>
    <g
       transform="matrix(0.25881904,-0.96592583,0.96592583,0.25881904,165.0866,-26.7298)"
       id="g39294">
      <path
         inkscape:connector-curvature="0"
         transform="matrix(0.171951,0,0,0.17194013,89.895321,1122.3907)"
         style="fill:none;stroke:#000000;stroke-width:1;stroke-miterlimit:4;stroke-opacity:1"
         d="m 595.71429,1849.4656 c 0,22.4859 -18.22841,40.7143 -40.71429,40.7143 -22.48588,0 -40.71429,-18.2284 -40.71429,-40.7143 0,-22.4859 18.22841,-40.7143 40.71429,-40.7143 22.48588,0 40.71429,18.2284 40.71429,40.7143 z"
         id="path39296" />
      <path
         inkscape:connector-curvature="0"
         transform="matrix(0.171951,0,0,0.17194013,89.895321,945.2257)"
         style="fill:none;stroke:#000000;stroke-width:1;stroke-miterlimit:4;stroke-opacity:1"
         d="m 595.71429,1849.4656 c 0,22.4859 -18.22841,40.7143 -40.71429,40.7143 -22.48588,0 -40.71429,-18.2284 -40.71429,-40.7143 0,-22.4859 18.22841,-40.7143 40.71429,-40.7143 22.48588,0 40.71429,18.2284 40.71429,40.7143 z"
         id="path39298" />
    </g>
    <g
       id="g39300"
       transform="matrix(0,-1,1,0,166.9914,329.4581)">
      <path
         inkscape:connector-curvature="0"
         transform="matrix(0.171951,0,0,0.17194013,89.895321,1122.3907)"
         style="fill:none;stroke:#000000;stroke-width:1;stroke-miterlimit:4;stroke-opacity:1"
         d="m 595.71429,1849.4656 c 0,22.4859 -18.22841,40.7143 -40.71429,40.7143 -22.48588,0 -40.71429,-18.2284 -40.71429,-40.7143 0,-22.4859 18.22841,-40.7143 40.71429,-40.7143 22.48588,0 40.71429,18.2284 40.71429,40.7143 z"
         id="path39302" />
      <path
         inkscape:connector-curvature="0"
         transform="matrix(0.171951,0,0,0.17194013,89.895321,945.2257)"
         style="fill:none;stroke:#000000;stroke-width:1;stroke-miterlimit:4;stroke-opacity:1"
         d="m 595.71429,1849.4656 c 0,22.4859 -18.22841,40.7143 -40.71429,40.7143 -22.48588,0 -40.71429,-18.2284 -40.71429,-40.7143 0,-22.4859 18.22841,-40.7143 40.71429,-40.7143 22.48588,0 40.71429,18.2284 40.71429,40.7143 z"
         id="path39304" />
    </g>
    <g
       transform="matrix(-0.25881905,-0.96592583,0.96592583,-0.25881905,261.0195,673.0162)"
       id="g39306">
      <path
         inkscape:connector-curvature="0"
         transform="matrix(0.171951,0,0,0.17194013,89.895321,1122.3907)"
         style="fill:none;stroke:#000000;stroke-width:1;stroke-miterlimit:4;stroke-opacity:1"
         d="m 595.71429,1849.4656 c 0,22.4859 -18.22841,40.7143 -40.71429,40.7143 -22.48588,0 -40.71429,-18.2284 -40.71429,-40.7143 0,-22.4859 18.22841,-40.7143 40.71429,-40.7143 22.48588,0 40.71429,18.2284 40.71429,40.7143 z"
         id="path39308" />
      <path
         inkscape:connector-curvature="0"
         transform="matrix(0.171951,0,0,0.17194013,89.895321,945.2257)"
         style="fill:none;stroke:#000000;stroke-width:1;stroke-miterlimit:4;stroke-opacity:1"
         d="m 595.71429,1849.4656 c 0,22.4859 -18.22841,40.7143 -40.71429,40.7143 -22.48588,0 -40.71429,-18.2284 -40.71429,-40.7143 0,-22.4859 18.22841,-40.7143 40.71429,-40.7143 22.48588,0 40.71429,18.2284 40.71429,40.7143 z"
         id="path39310" />
    </g>
    <g
       id="g39312"
       transform="matrix(-0.50000001,-0.86602541,0.86602541,-0.50000001,440.76306,980.5316)">
      <path
         inkscape:connector-curvature="0"
         transform="matrix(0.171951,0,0,0.17194013,89.895321,1122.3907)"
         style="fill:none;stroke:#000000;stroke-width:1;stroke-miterlimit:4;stroke-opacity:1"
         d="m 595.71429,1849.4656 c 0,22.4859 -18.22841,40.7143 -40.71429,40.7143 -22.48588,0 -40.71429,-18.2284 -40.71429,-40.7143 0,-22.4859 18.22841,-40.7143 40.71429,-40.7143 22.48588,0 40.71429,18.2284 40.71429,40.7143 z"
         id="path39314" />
      <path
         inkscape:connector-curvature="0"
         transform="matrix(0.171951,0,0,0.17194013,89.895321,945.2257)"
         style="fill:none;stroke:#000000;stroke-width:1;stroke-miterlimit:4;stroke-opacity:1"
         d="m 595.71429,1849.4656 c 0,22.4859 -18.22841,40.7143 -40.71429,40.7143 -22.48588,0 -40.71429,-18.2284 -40.71429,-40.7143 0,-22.4859 18.22841,-40.7143 40.71429,-40.7143 22.48588,0 40.71429,18.2284 40.71429,40.7143 z"
         id="path39316" />
    </g>
    <g
       transform="matrix(-0.70710679,-0.70710678,0.70710678,-0.70710679,693.97285,1231.0476)"
       id="g39318">
      <path
         inkscape:connector-curvature="0"
         transform="matrix(0.171951,0,0,0.17194013,89.895321,1122.3907)"
         style="fill:none;stroke:#000000;stroke-width:1;stroke-miterlimit:4;stroke-opacity:1"
         d="m 595.71429,1849.4656 c 0,22.4859 -18.22841,40.7143 -40.71429,40.7143 -22.48588,0 -40.71429,-18.2284 -40.71429,-40.7143 0,-22.4859 18.22841,-40.7143 40.71429,-40.7143 22.48588,0 40.71429,18.2284 40.71429,40.7143 z"
         id="path39320" />
      <path
         inkscape:connector-curvature="0"
         transform="matrix(0.171951,0,0,0.17194013,89.895321,945.2257)"
         style="fill:none;stroke:#000000;stroke-width:1;stroke-miterlimit:4;stroke-opacity:1"
         d="m 595.71429,1849.4656 c 0,22.4859 -18.22841,40.7143 -40.71429,40.7143 -22.48588,0 -40.71429,-18.2284 -40.71429,-40.7143 0,-22.4859 18.22841,-40.7143 40.71429,-40.7143 22.48588,0 40.71429,18.2284 40.71429,40.7143 z"
         id="path39322" />
    </g>
    <g
       id="g39324"
       transform="matrix(-0.86602541,-0.5,0.5,-0.86602541,1003.393,1407.492)">
      <path
         inkscape:connector-curvature="0"
         transform="matrix(0.171951,0,0,0.17194013,89.895321,1122.3907)"
         style="fill:none;stroke:#000000;stroke-width:1;stroke-miterlimit:4;stroke-opacity:1"
         d="m 595.71429,1849.4656 c 0,22.4859 -18.22841,40.7143 -40.71429,40.7143 -22.48588,0 -40.71429,-18.2284 -40.71429,-40.7143 0,-22.4859 18.22841,-40.7143 40.71429,-40.7143 22.48588,0 40.71429,18.2284 40.71429,40.7143 z"
         id="path39326" />
      <path
         inkscape:connector-curvature="0"
         transform="matrix(0.171951,0,0,0.17194013,89.895321,945.2257)"
         style="fill:none;stroke:#000000;stroke-width:1;stroke-miterlimit:4;stroke-opacity:1"
         d="m 595.71429,1849.4656 c 0,22.4859 -18.22841,40.7143 -40.71429,40.7143 -22.48588,0 -40.71429,-18.2284 -40.71429,-40.7143 0,-22.4859 18.22841,-40.7143 40.71429,-40.7143 22.48588,0 40.71429,18.2284 40.71429,40.7143 z"
         id="path39328" />
    </g>
    <g
       transform="matrix(-0.96592583,-0.25881904,0.25881904,-0.96592583,1347.9372,1497.8403)"
       id="g39330">
      <path
         inkscape:connector-curvature="0"
         transform="matrix(0.171951,0,0,0.17194013,89.895321,1122.3907)"
         style="fill:none;stroke:#000000;stroke-width:1;stroke-miterlimit:4;stroke-opacity:1"
         d="m 595.71429,1849.4656 c 0,22.4859 -18.22841,40.7143 -40.71429,40.7143 -22.48588,0 -40.71429,-18.2284 -40.71429,-40.7143 0,-22.4859 18.22841,-40.7143 40.71429,-40.7143 22.48588,0 40.71429,18.2284 40.71429,40.7143 z"
         id="path39332" />
      <path
         inkscape:connector-curvature="0"
         transform="matrix(0.171951,0,0,0.17194013,89.895321,945.2257)"
         style="fill:none;stroke:#000000;stroke-width:1;stroke-miterlimit:4;stroke-opacity:1"
         d="m 595.71429,1849.4656 c 0,22.4859 -18.22841,40.7143 -40.71429,40.7143 -22.48588,0 -40.71429,-18.2284 -40.71429,-40.7143 0,-22.4859 18.22841,-40.7143 40.71429,-40.7143 22.48588,0 40.71429,18.2284 40.71429,40.7143 z"
         id="path39334" />
    </g>
    <path
       inkscape:connector-curvature="0"
       style="fill:none;stroke:#000000;stroke-width:0.17194557;stroke-miterlimit:4;stroke-opacity:1"
       d="m 1525.7885,454.15156 c 0,3.86622 -3.1344,7.00042 -7.0009,7.00042 -3.8665,0 -7.0009,-3.1342 -7.0009,-7.00042 0,-3.86623 3.1344,-7.00043 7.0009,-7.00043 3.8665,0 7.0009,3.1342 7.0009,7.00043 z"
       id="path39338" />
    <path
       inkscape:connector-curvature="0"
       style="fill:none;stroke:#000000;stroke-width:0.17194557;stroke-miterlimit:4;stroke-opacity:1"
       d="m 1525.7885,383.28556 c 0,3.86622 -3.1344,7.00042 -7.0009,7.00042 -3.8665,0 -7.0009,-3.1342 -7.0009,-7.00042 0,-3.86623 3.1344,-7.00043 7.0009,-7.00043 3.8665,0 7.0009,3.1342 7.0009,7.00043 z"
       id="path39340" />
    <g
       transform="matrix(0.8660254,-0.5,0.5,0.8660254,521.58539,-866.94546)"
       id="g39348">
      <path
         inkscape:connector-curvature="0"
         transform="matrix(0.171951,0,0,0.17194013,125.33764,1329.4545)"
         style="fill:none;stroke:#000000;stroke-width:1;stroke-miterlimit:4;stroke-opacity:1"
         d="m 595.71429,1849.4656 c 0,22.4859 -18.22841,40.7143 -40.71429,40.7143 -22.48588,0 -40.71429,-18.2284 -40.71429,-40.7143 0,-22.4859 18.22841,-40.7143 40.71429,-40.7143 22.48588,0 40.71429,18.2284 40.71429,40.7143 z"
         id="path39350" />
      <path
         inkscape:connector-curvature="0"
         transform="matrix(0.171951,0,0,0.17194013,125.33764,1258.5885)"
         style="fill:none;stroke:#000000;stroke-width:1;stroke-miterlimit:4;stroke-opacity:1"
         d="m 595.71429,1849.4656 c 0,22.4859 -18.22841,40.7143 -40.71429,40.7143 -22.48588,0 -40.71429,-18.2284 -40.71429,-40.7143 0,-22.4859 18.22841,-40.7143 40.71429,-40.7143 22.48588,0 40.71429,18.2284 40.71429,40.7143 z"
         id="path39352" />
    </g>
    <g
       id="g39354"
       transform="matrix(0.5,-0.8660254,0.8660254,0.5,12.3531,-196.098)">
      <path
         inkscape:connector-curvature="0"
         transform="matrix(0.171951,0,0,0.17194013,125.33764,1329.4545)"
         style="fill:none;stroke:#000000;stroke-width:1;stroke-miterlimit:4;stroke-opacity:1"
         d="m 595.71429,1849.4656 c 0,22.4859 -18.22841,40.7143 -40.71429,40.7143 -22.48588,0 -40.71429,-18.2284 -40.71429,-40.7143 0,-22.4859 18.22841,-40.7143 40.71429,-40.7143 22.48588,0 40.71429,18.2284 40.71429,40.7143 z"
         id="path39356" />
      <path
         inkscape:connector-curvature="0"
         transform="matrix(0.171951,0,0,0.17194013,125.33764,1258.5885)"
         style="fill:none;stroke:#000000;stroke-width:1;stroke-miterlimit:4;stroke-opacity:1"
         d="m 595.71429,1849.4656 c 0,22.4859 -18.22841,40.7143 -40.71429,40.7143 -22.48588,0 -40.71429,-18.2284 -40.71429,-40.7143 0,-22.4859 18.22841,-40.7143 40.71429,-40.7143 22.48588,0 40.71429,18.2284 40.71429,40.7143 z"
         id="path39358" />
    </g>
    <g
       transform="matrix(0,-1,1,0,-93.2313,639.4891)"
       id="g39360">
      <path
         inkscape:connector-curvature="0"
         transform="matrix(0.171951,0,0,0.17194013,125.33764,1329.4545)"
         style="fill:none;stroke:#000000;stroke-width:1;stroke-miterlimit:4;stroke-opacity:1"
         d="m 595.71429,1849.4656 c 0,22.4859 -18.22841,40.7143 -40.71429,40.7143 -22.48588,0 -40.71429,-18.2284 -40.71429,-40.7143 0,-22.4859 18.22841,-40.7143 40.71429,-40.7143 22.48588,0 40.71429,18.2284 40.71429,40.7143 z"
         id="path39362" />
      <path
         inkscape:connector-curvature="0"
         transform="matrix(0.171951,0,0,0.17194013,125.33764,1258.5885)"
         style="fill:none;stroke:#000000;stroke-width:1;stroke-miterlimit:4;stroke-opacity:1"
         d="m 595.71429,1849.4656 c 0,22.4859 -18.22841,40.7143 -40.71429,40.7143 -22.48588,0 -40.71429,-18.2284 -40.71429,-40.7143 0,-22.4859 18.22841,-40.7143 40.71429,-40.7143 22.48588,0 40.71429,18.2284 40.71429,40.7143 z"
         id="path39364" />
    </g>
    <g
       id="g39366"
       transform="matrix(-0.5,-0.8660254,0.8660254,-0.5,233.1235,1415.9209)">
      <path
         inkscape:connector-curvature="0"
         transform="matrix(0.171951,0,0,0.17194013,125.33764,1329.4545)"
         style="fill:none;stroke:#000000;stroke-width:1;stroke-miterlimit:4;stroke-opacity:1"
         d="m 595.71429,1849.4656 c 0,22.4859 -18.22841,40.7143 -40.71429,40.7143 -22.48588,0 -40.71429,-18.2284 -40.71429,-40.7143 0,-22.4859 18.22841,-40.7143 40.71429,-40.7143 22.48588,0 40.71429,18.2284 40.71429,40.7143 z"
         id="path39368" />
      <path
         inkscape:connector-curvature="0"
         transform="matrix(0.171951,0,0,0.17194013,125.33764,1258.5885)"
         style="fill:none;stroke:#000000;stroke-width:1;stroke-miterlimit:4;stroke-opacity:1"
         d="m 595.71429,1849.4656 c 0,22.4859 -18.22841,40.7143 -40.71429,40.7143 -22.48588,0 -40.71429,-18.2284 -40.71429,-40.7143 0,-22.4859 18.22841,-40.7143 40.71429,-40.7143 22.48588,0 40.71429,18.2284 40.71429,40.7143 z"
         id="path39370" />
    </g>
    <g
       transform="matrix(-0.8660254,-0.5,0.5,-0.8660254,903.97094,1925.1532)"
       id="g39372">
      <path
         inkscape:connector-curvature="0"
         transform="matrix(0.171951,0,0,0.17194013,125.33764,1329.4545)"
         style="fill:none;stroke:#000000;stroke-width:1;stroke-miterlimit:4;stroke-opacity:1"
         d="m 595.71429,1849.4656 c 0,22.4859 -18.22841,40.7143 -40.71429,40.7143 -22.48588,0 -40.71429,-18.2284 -40.71429,-40.7143 0,-22.4859 18.22841,-40.7143 40.71429,-40.7143 22.48588,0 40.71429,18.2284 40.71429,40.7143 z"
         id="path39374" />
      <path
         inkscape:connector-curvature="0"
         transform="matrix(0.171951,0,0,0.17194013,125.33764,1258.5885)"
         style="fill:none;stroke:#000000;stroke-width:1;stroke-miterlimit:4;stroke-opacity:1"
         d="m 595.71429,1849.4656 c 0,22.4859 -18.22841,40.7143 -40.71429,40.7143 -22.48588,0 -40.71429,-18.2284 -40.71429,-40.7143 0,-22.4859 18.22841,-40.7143 40.71429,-40.7143 22.48588,0 40.71429,18.2284 40.71429,40.7143 z"
         id="path39376" />
    </g>
    <path
       inkscape:connector-curvature="0"
       style="fill:none;stroke:#000000;stroke-width:0.17194557;stroke-miterlimit:4;stroke-opacity:1"
       d="m 1525.7885,418.71856 c 0,3.86622 -3.1344,7.00042 -7.0009,7.00042 -3.8665,0 -7.0009,-3.1342 -7.0009,-7.00042 0,-3.86623 3.1344,-7.00043 7.0009,-7.00043 3.8665,0 7.0009,3.1342 7.0009,7.00043 z"
       id="path39386" />
    <path
       inkscape:connector-curvature="0"
       style="fill:none;stroke:#000000;stroke-width:0.17194557;stroke-miterlimit:4;stroke-opacity:1"
       d="m 1511.7961,-164.88476 c 0,-3.86622 3.1344,-7.00042 7.0009,-7.00042 3.8665,0 7.0009,3.1342 7.0009,7.00042 0,3.86623 -3.1344,7.00043 -7.0009,7.00043 -3.8665,0 -7.0009,-3.1342 -7.0009,-7.00043 z"
       id="path39413" />
    <path
       inkscape:connector-curvature="0"
       style="fill:none;stroke:#000000;stroke-width:0.17194557;stroke-miterlimit:4;stroke-opacity:1"
       d="m 1511.7961,-94.018756 c 0,-3.866228 3.1344,-7.000424 7.0009,-7.000424 3.8665,0 7.0009,3.134196 7.0009,7.000424 0,3.866229 -3.1344,7.000422 -7.0009,7.000422 -3.8665,0 -7.0009,-3.134193 -7.0009,-7.000422 z"
       id="path39415" />
    <g
       id="g39417"
       transform="matrix(-0.8660254,0.5,-0.5,-0.8660254,2515.9992,1156.2123)">
      <path
         inkscape:connector-curvature="0"
         transform="matrix(0.171951,0,0,0.17194013,125.33764,1329.4545)"
         style="fill:none;stroke:#000000;stroke-width:1;stroke-miterlimit:4;stroke-opacity:1"
         d="m 595.71429,1849.4656 c 0,22.4859 -18.22841,40.7143 -40.71429,40.7143 -22.48588,0 -40.71429,-18.2284 -40.71429,-40.7143 0,-22.4859 18.22841,-40.7143 40.71429,-40.7143 22.48588,0 40.71429,18.2284 40.71429,40.7143 z"
         id="path39419" />
      <path
         inkscape:connector-curvature="0"
         transform="matrix(0.171951,0,0,0.17194013,125.33764,1258.5885)"
         style="fill:none;stroke:#000000;stroke-width:1;stroke-miterlimit:4;stroke-opacity:1"
         d="m 595.71429,1849.4656 c 0,22.4859 -18.22841,40.7143 -40.71429,40.7143 -22.48588,0 -40.71429,-18.2284 -40.71429,-40.7143 0,-22.4859 18.22841,-40.7143 40.71429,-40.7143 22.48588,0 40.71429,18.2284 40.71429,40.7143 z"
         id="path39421" />
    </g>
    <g
       transform="matrix(-0.5,0.8660254,-0.8660254,-0.5,3025.2315,485.3648)"
       id="g39423">
      <path
         inkscape:connector-curvature="0"
         transform="matrix(0.171951,0,0,0.17194013,125.33764,1329.4545)"
         style="fill:none;stroke:#000000;stroke-width:1;stroke-miterlimit:4;stroke-opacity:1"
         d="m 595.71429,1849.4656 c 0,22.4859 -18.22841,40.7143 -40.71429,40.7143 -22.48588,0 -40.71429,-18.2284 -40.71429,-40.7143 0,-22.4859 18.22841,-40.7143 40.71429,-40.7143 22.48588,0 40.71429,18.2284 40.71429,40.7143 z"
         id="path39425" />
      <path
         inkscape:connector-curvature="0"
         transform="matrix(0.171951,0,0,0.17194013,125.33764,1258.5885)"
         style="fill:none;stroke:#000000;stroke-width:1;stroke-miterlimit:4;stroke-opacity:1"
         d="m 595.71429,1849.4656 c 0,22.4859 -18.22841,40.7143 -40.71429,40.7143 -22.48588,0 -40.71429,-18.2284 -40.71429,-40.7143 0,-22.4859 18.22841,-40.7143 40.71429,-40.7143 22.48588,0 40.71429,18.2284 40.71429,40.7143 z"
         id="path39427" />
    </g>
    <g
       id="g39429"
       transform="matrix(0,1,-1,0,3130.8159,-350.2223)">
      <path
         inkscape:connector-curvature="0"
         transform="matrix(0.171951,0,0,0.17194013,125.33764,1329.4545)"
         style="fill:none;stroke:#000000;stroke-width:1;stroke-miterlimit:4;stroke-opacity:1"
         d="m 595.71429,1849.4656 c 0,22.4859 -18.22841,40.7143 -40.71429,40.7143 -22.48588,0 -40.71429,-18.2284 -40.71429,-40.7143 0,-22.4859 18.22841,-40.7143 40.71429,-40.7143 22.48588,0 40.71429,18.2284 40.71429,40.7143 z"
         id="path39431" />
      <path
         inkscape:connector-curvature="0"
         transform="matrix(0.171951,0,0,0.17194013,125.33764,1258.5885)"
         style="fill:none;stroke:#000000;stroke-width:1;stroke-miterlimit:4;stroke-opacity:1"
         d="m 595.71429,1849.4656 c 0,22.4859 -18.22841,40.7143 -40.71429,40.7143 -22.48588,0 -40.71429,-18.2284 -40.71429,-40.7143 0,-22.4859 18.22841,-40.7143 40.71429,-40.7143 22.48588,0 40.71429,18.2284 40.71429,40.7143 z"
         id="path39433" />
    </g>
    <g
       transform="matrix(0.5,0.8660254,-0.8660254,0.5,2804.4611,-1126.6541)"
       id="g39435">
      <path
         inkscape:connector-curvature="0"
         transform="matrix(0.171951,0,0,0.17194013,125.33764,1329.4545)"
         style="fill:none;stroke:#000000;stroke-width:1;stroke-miterlimit:4;stroke-opacity:1"
         d="m 595.71429,1849.4656 c 0,22.4859 -18.22841,40.7143 -40.71429,40.7143 -22.48588,0 -40.71429,-18.2284 -40.71429,-40.7143 0,-22.4859 18.22841,-40.7143 40.71429,-40.7143 22.48588,0 40.71429,18.2284 40.71429,40.7143 z"
         id="path39437" />
      <path
         inkscape:connector-curvature="0"
         transform="matrix(0.171951,0,0,0.17194013,125.33764,1258.5885)"
         style="fill:none;stroke:#000000;stroke-width:1;stroke-miterlimit:4;stroke-opacity:1"
         d="m 595.71429,1849.4656 c 0,22.4859 -18.22841,40.7143 -40.71429,40.7143 -22.48588,0 -40.71429,-18.2284 -40.71429,-40.7143 0,-22.4859 18.22841,-40.7143 40.71429,-40.7143 22.48588,0 40.71429,18.2284 40.71429,40.7143 z"
         id="path39439" />
    </g>
    <g
       id="g39441"
       transform="matrix(0.8660254,0.5,-0.5,0.8660254,2133.6137,-1635.8864)">
      <path
         inkscape:connector-curvature="0"
         transform="matrix(0.171951,0,0,0.17194013,125.33764,1329.4545)"
         style="fill:none;stroke:#000000;stroke-width:1;stroke-miterlimit:4;stroke-opacity:1"
         d="m 595.71429,1849.4656 c 0,22.4859 -18.22841,40.7143 -40.71429,40.7143 -22.48588,0 -40.71429,-18.2284 -40.71429,-40.7143 0,-22.4859 18.22841,-40.7143 40.71429,-40.7143 22.48588,0 40.71429,18.2284 40.71429,40.7143 z"
         id="path39443" />
      <path
         inkscape:connector-curvature="0"
         transform="matrix(0.171951,0,0,0.17194013,125.33764,1258.5885)"
         style="fill:none;stroke:#000000;stroke-width:1;stroke-miterlimit:4;stroke-opacity:1"
         d="m 595.71429,1849.4656 c 0,22.4859 -18.22841,40.7143 -40.71429,40.7143 -22.48588,0 -40.71429,-18.2284 -40.71429,-40.7143 0,-22.4859 18.22841,-40.7143 40.71429,-40.7143 22.48588,0 40.71429,18.2284 40.71429,40.7143 z"
         id="path39445" />
    </g>
    <path
       inkscape:connector-curvature="0"
       style="fill:none;stroke:#000000;stroke-width:0.17194557;stroke-miterlimit:4;stroke-opacity:1"
       d="m 1511.7961,-129.45176 c 0,-3.86622 3.1344,-7.00042 7.0009,-7.00042 3.8665,0 7.0009,3.1342 7.0009,7.00042 0,3.86623 -3.1344,7.00043 -7.0009,7.00043 -3.8665,0 -7.0009,-3.1342 -7.0009,-7.00043 z"
       id="path39447" />
    <path
       inkscape:connector-curvature="0"
       style="fill:none;stroke:#000000;stroke-width:0.17194557;stroke-miterlimit:4;stroke-opacity:1"
       d="m 1831.8538,137.63723 c 3.8662,0 7.0004,3.1344 7.0004,7.00086 0,3.86647 -3.1342,7.00087 -7.0004,7.00087 -3.8663,0 -7.0005,-3.1344 -7.0005,-7.00087 0,-3.86646 3.1342,-7.00086 7.0005,-7.00086 z"
       id="path39497" />
    <path
       inkscape:connector-curvature="0"
       style="fill:none;stroke:#000000;stroke-width:0.17194557;stroke-miterlimit:4;stroke-opacity:1"
       d="m 1760.9878,137.63723 c 3.8662,0 7.0004,3.1344 7.0004,7.00086 0,3.86647 -3.1342,7.00087 -7.0004,7.00087 -3.8663,0 -7.0005,-3.1344 -7.0005,-7.00087 0,-3.86646 3.1342,-7.00086 7.0005,-7.00086 z"
       id="path39499" />
    <g
       id="g39501"
       transform="matrix(-0.5,-0.8660254,0.8660254,-0.5,510.75674,1141.8403)">
      <path
         inkscape:connector-curvature="0"
         transform="matrix(0.171951,0,0,0.17194013,125.33764,1329.4545)"
         style="fill:none;stroke:#000000;stroke-width:1;stroke-miterlimit:4;stroke-opacity:1"
         d="m 595.71429,1849.4656 c 0,22.4859 -18.22841,40.7143 -40.71429,40.7143 -22.48588,0 -40.71429,-18.2284 -40.71429,-40.7143 0,-22.4859 18.22841,-40.7143 40.71429,-40.7143 22.48588,0 40.71429,18.2284 40.71429,40.7143 z"
         id="path39503" />
      <path
         inkscape:connector-curvature="0"
         transform="matrix(0.171951,0,0,0.17194013,125.33764,1258.5885)"
         style="fill:none;stroke:#000000;stroke-width:1;stroke-miterlimit:4;stroke-opacity:1"
         d="m 595.71429,1849.4656 c 0,22.4859 -18.22841,40.7143 -40.71429,40.7143 -22.48588,0 -40.71429,-18.2284 -40.71429,-40.7143 0,-22.4859 18.22841,-40.7143 40.71429,-40.7143 22.48588,0 40.71429,18.2284 40.71429,40.7143 z"
         id="path39505" />
    </g>
    <g
       transform="matrix(-0.8660254,-0.5,0.5,-0.8660254,1181.6042,1651.0726)"
       id="g39507">
      <path
         inkscape:connector-curvature="0"
         transform="matrix(0.171951,0,0,0.17194013,125.33764,1329.4545)"
         style="fill:none;stroke:#000000;stroke-width:1;stroke-miterlimit:4;stroke-opacity:1"
         d="m 595.71429,1849.4656 c 0,22.4859 -18.22841,40.7143 -40.71429,40.7143 -22.48588,0 -40.71429,-18.2284 -40.71429,-40.7143 0,-22.4859 18.22841,-40.7143 40.71429,-40.7143 22.48588,0 40.71429,18.2284 40.71429,40.7143 z"
         id="path39509" />
      <path
         inkscape:connector-curvature="0"
         transform="matrix(0.171951,0,0,0.17194013,125.33764,1258.5885)"
         style="fill:none;stroke:#000000;stroke-width:1;stroke-miterlimit:4;stroke-opacity:1"
         d="m 595.71429,1849.4656 c 0,22.4859 -18.22841,40.7143 -40.71429,40.7143 -22.48588,0 -40.71429,-18.2284 -40.71429,-40.7143 0,-22.4859 18.22841,-40.7143 40.71429,-40.7143 22.48588,0 40.71429,18.2284 40.71429,40.7143 z"
         id="path39511" />
    </g>
    <g
       id="g39513"
       transform="matrix(-1,0,0,-1,2017.1913,1756.657)">
      <path
         inkscape:connector-curvature="0"
         transform="matrix(0.171951,0,0,0.17194013,125.33764,1329.4545)"
         style="fill:none;stroke:#000000;stroke-width:1;stroke-miterlimit:4;stroke-opacity:1"
         d="m 595.71429,1849.4656 c 0,22.4859 -18.22841,40.7143 -40.71429,40.7143 -22.48588,0 -40.71429,-18.2284 -40.71429,-40.7143 0,-22.4859 18.22841,-40.7143 40.71429,-40.7143 22.48588,0 40.71429,18.2284 40.71429,40.7143 z"
         id="path39515" />
      <path
         inkscape:connector-curvature="0"
         transform="matrix(0.171951,0,0,0.17194013,125.33764,1258.5885)"
         style="fill:none;stroke:#000000;stroke-width:1;stroke-miterlimit:4;stroke-opacity:1"
         d="m 595.71429,1849.4656 c 0,22.4859 -18.22841,40.7143 -40.71429,40.7143 -22.48588,0 -40.71429,-18.2284 -40.71429,-40.7143 0,-22.4859 18.22841,-40.7143 40.71429,-40.7143 22.48588,0 40.71429,18.2284 40.71429,40.7143 z"
         id="path39517" />
    </g>
    <g
       transform="matrix(-0.8660254,0.5,-0.5,-0.8660254,2793.6231,1430.3022)"
       id="g39519">
      <path
         inkscape:connector-curvature="0"
         transform="matrix(0.171951,0,0,0.17194013,125.33764,1329.4545)"
         style="fill:none;stroke:#000000;stroke-width:1;stroke-miterlimit:4;stroke-opacity:1"
         d="m 595.71429,1849.4656 c 0,22.4859 -18.22841,40.7143 -40.71429,40.7143 -22.48588,0 -40.71429,-18.2284 -40.71429,-40.7143 0,-22.4859 18.22841,-40.7143 40.71429,-40.7143 22.48588,0 40.71429,18.2284 40.71429,40.7143 z"
         id="path39521" />
      <path
         inkscape:connector-curvature="0"
         transform="matrix(0.171951,0,0,0.17194013,125.33764,1258.5885)"
         style="fill:none;stroke:#000000;stroke-width:1;stroke-miterlimit:4;stroke-opacity:1"
         d="m 595.71429,1849.4656 c 0,22.4859 -18.22841,40.7143 -40.71429,40.7143 -22.48588,0 -40.71429,-18.2284 -40.71429,-40.7143 0,-22.4859 18.22841,-40.7143 40.71429,-40.7143 22.48588,0 40.71429,18.2284 40.71429,40.7143 z"
         id="path39523" />
    </g>
    <g
       id="g39525"
       transform="matrix(-0.5,0.8660254,-0.8660254,-0.5,3302.8554,759.4548)">
      <path
         inkscape:connector-curvature="0"
         transform="matrix(0.171951,0,0,0.17194013,125.33764,1329.4545)"
         style="fill:none;stroke:#000000;stroke-width:1;stroke-miterlimit:4;stroke-opacity:1"
         d="m 595.71429,1849.4656 c 0,22.4859 -18.22841,40.7143 -40.71429,40.7143 -22.48588,0 -40.71429,-18.2284 -40.71429,-40.7143 0,-22.4859 18.22841,-40.7143 40.71429,-40.7143 22.48588,0 40.71429,18.2284 40.71429,40.7143 z"
         id="path39527" />
      <path
         inkscape:connector-curvature="0"
         transform="matrix(0.171951,0,0,0.17194013,125.33764,1258.5885)"
         style="fill:none;stroke:#000000;stroke-width:1;stroke-miterlimit:4;stroke-opacity:1"
         d="m 595.71429,1849.4656 c 0,22.4859 -18.22841,40.7143 -40.71429,40.7143 -22.48588,0 -40.71429,-18.2284 -40.71429,-40.7143 0,-22.4859 18.22841,-40.7143 40.71429,-40.7143 22.48588,0 40.71429,18.2284 40.71429,40.7143 z"
         id="path39529" />
    </g>
    <path
       inkscape:connector-curvature="0"
       style="fill:none;stroke:#000000;stroke-width:0.17194557;stroke-miterlimit:4;stroke-opacity:1"
       d="m 1796.4208,137.63723 c 3.8662,0 7.0004,3.1344 7.0004,7.00086 0,3.86647 -3.1342,7.00087 -7.0004,7.00087 -3.8663,0 -7.0005,-3.1344 -7.0005,-7.00087 0,-3.86646 3.1342,-7.00086 7.0005,-7.00086 z"
       id="path39531" />
    <path
       inkscape:connector-curvature="0"
       style="fill:none;stroke:#000000;stroke-width:0.17194557;stroke-miterlimit:4;stroke-opacity:1"
       d="m 1205.7308,151.62957 c -3.8662,0 -7.0004,-3.1344 -7.0004,-7.00087 0,-3.86646 3.1342,-7.00086 7.0004,-7.00086 3.8663,0 7.0005,3.1344 7.0005,7.00086 0,3.86647 -3.1342,7.00087 -7.0005,7.00087 z"
       id="path39537" />
    <path
       inkscape:connector-curvature="0"
       style="fill:none;stroke:#000000;stroke-width:0.17194557;stroke-miterlimit:4;stroke-opacity:1"
       d="m 1276.5968,151.62957 c -3.8662,0 -7.0004,-3.1344 -7.0004,-7.00087 0,-3.86646 3.1342,-7.00086 7.0004,-7.00086 3.8663,0 7.0005,3.1344 7.0005,7.00086 0,3.86647 -3.1342,7.00087 -7.0005,7.00087 z"
       id="path39539" />
    <g
       transform="matrix(0.5,0.8660254,-0.8660254,0.5,2526.8279,-852.57351)"
       id="g39541">
      <path
         inkscape:connector-curvature="0"
         transform="matrix(0.171951,0,0,0.17194013,125.33764,1329.4545)"
         style="fill:none;stroke:#000000;stroke-width:1;stroke-miterlimit:4;stroke-opacity:1"
         d="m 595.71429,1849.4656 c 0,22.4859 -18.22841,40.7143 -40.71429,40.7143 -22.48588,0 -40.71429,-18.2284 -40.71429,-40.7143 0,-22.4859 18.22841,-40.7143 40.71429,-40.7143 22.48588,0 40.71429,18.2284 40.71429,40.7143 z"
         id="path39543" />
      <path
         inkscape:connector-curvature="0"
         transform="matrix(0.171951,0,0,0.17194013,125.33764,1258.5885)"
         style="fill:none;stroke:#000000;stroke-width:1;stroke-miterlimit:4;stroke-opacity:1"
         d="m 595.71429,1849.4656 c 0,22.4859 -18.22841,40.7143 -40.71429,40.7143 -22.48588,0 -40.71429,-18.2284 -40.71429,-40.7143 0,-22.4859 18.22841,-40.7143 40.71429,-40.7143 22.48588,0 40.71429,18.2284 40.71429,40.7143 z"
         id="path39545" />
    </g>
    <g
       id="g39547"
       transform="matrix(0.8660254,0.5,-0.5,0.8660254,1855.9804,-1361.8058)">
      <path
         inkscape:connector-curvature="0"
         transform="matrix(0.171951,0,0,0.17194013,125.33764,1329.4545)"
         style="fill:none;stroke:#000000;stroke-width:1;stroke-miterlimit:4;stroke-opacity:1"
         d="m 595.71429,1849.4656 c 0,22.4859 -18.22841,40.7143 -40.71429,40.7143 -22.48588,0 -40.71429,-18.2284 -40.71429,-40.7143 0,-22.4859 18.22841,-40.7143 40.71429,-40.7143 22.48588,0 40.71429,18.2284 40.71429,40.7143 z"
         id="path39549" />
      <path
         inkscape:connector-curvature="0"
         transform="matrix(0.171951,0,0,0.17194013,125.33764,1258.5885)"
         style="fill:none;stroke:#000000;stroke-width:1;stroke-miterlimit:4;stroke-opacity:1"
         d="m 595.71429,1849.4656 c 0,22.4859 -18.22841,40.7143 -40.71429,40.7143 -22.48588,0 -40.71429,-18.2284 -40.71429,-40.7143 0,-22.4859 18.22841,-40.7143 40.71429,-40.7143 22.48588,0 40.71429,18.2284 40.71429,40.7143 z"
         id="path39551" />
    </g>
    <g
       transform="translate(1020.3933,-1467.3902)"
       id="g39553">
      <path
         inkscape:connector-curvature="0"
         transform="matrix(0.171951,0,0,0.17194013,125.33764,1329.4545)"
         style="fill:none;stroke:#000000;stroke-width:1;stroke-miterlimit:4;stroke-opacity:1"
         d="m 595.71429,1849.4656 c 0,22.4859 -18.22841,40.7143 -40.71429,40.7143 -22.48588,0 -40.71429,-18.2284 -40.71429,-40.7143 0,-22.4859 18.22841,-40.7143 40.71429,-40.7143 22.48588,0 40.71429,18.2284 40.71429,40.7143 z"
         id="path39555" />
      <path
         inkscape:connector-curvature="0"
         transform="matrix(0.171951,0,0,0.17194013,125.33764,1258.5885)"
         style="fill:none;stroke:#000000;stroke-width:1;stroke-miterlimit:4;stroke-opacity:1"
         d="m 595.71429,1849.4656 c 0,22.4859 -18.22841,40.7143 -40.71429,40.7143 -22.48588,0 -40.71429,-18.2284 -40.71429,-40.7143 0,-22.4859 18.22841,-40.7143 40.71429,-40.7143 22.48588,0 40.71429,18.2284 40.71429,40.7143 z"
         id="path39557" />
    </g>
    <g
       id="g39559"
       transform="matrix(0.8660254,-0.5,0.5,0.8660254,243.9615,-1141.0354)">
      <path
         inkscape:connector-curvature="0"
         transform="matrix(0.171951,0,0,0.17194013,125.33764,1329.4545)"
         style="fill:none;stroke:#000000;stroke-width:1;stroke-miterlimit:4;stroke-opacity:1"
         d="m 595.71429,1849.4656 c 0,22.4859 -18.22841,40.7143 -40.71429,40.7143 -22.48588,0 -40.71429,-18.2284 -40.71429,-40.7143 0,-22.4859 18.22841,-40.7143 40.71429,-40.7143 22.48588,0 40.71429,18.2284 40.71429,40.7143 z"
         id="path39561" />
      <path
         inkscape:connector-curvature="0"
         transform="matrix(0.171951,0,0,0.17194013,125.33764,1258.5885)"
         style="fill:none;stroke:#000000;stroke-width:1;stroke-miterlimit:4;stroke-opacity:1"
         d="m 595.71429,1849.4656 c 0,22.4859 -18.22841,40.7143 -40.71429,40.7143 -22.48588,0 -40.71429,-18.2284 -40.71429,-40.7143 0,-22.4859 18.22841,-40.7143 40.71429,-40.7143 22.48588,0 40.71429,18.2284 40.71429,40.7143 z"
         id="path39563" />
    </g>
    <g
       transform="matrix(0.5,-0.8660254,0.8660254,0.5,-265.2708,-470.188)"
       id="g39565">
      <path
         inkscape:connector-curvature="0"
         transform="matrix(0.171951,0,0,0.17194013,125.33764,1329.4545)"
         style="fill:none;stroke:#000000;stroke-width:1;stroke-miterlimit:4;stroke-opacity:1"
         d="m 595.71429,1849.4656 c 0,22.4859 -18.22841,40.7143 -40.71429,40.7143 -22.48588,0 -40.71429,-18.2284 -40.71429,-40.7143 0,-22.4859 18.22841,-40.7143 40.71429,-40.7143 22.48588,0 40.71429,18.2284 40.71429,40.7143 z"
         id="path39567" />
      <path
         inkscape:connector-curvature="0"
         transform="matrix(0.171951,0,0,0.17194013,125.33764,1258.5885)"
         style="fill:none;stroke:#000000;stroke-width:1;stroke-miterlimit:4;stroke-opacity:1"
         d="m 595.71429,1849.4656 c 0,22.4859 -18.22841,40.7143 -40.71429,40.7143 -22.48588,0 -40.71429,-18.2284 -40.71429,-40.7143 0,-22.4859 18.22841,-40.7143 40.71429,-40.7143 22.48588,0 40.71429,18.2284 40.71429,40.7143 z"
         id="path39569" />
    </g>
    <path
       inkscape:connector-curvature="0"
       style="fill:none;stroke:#000000;stroke-width:0.17194557;stroke-miterlimit:4;stroke-opacity:1"
       d="m 1241.1638,151.62957 c -3.8662,0 -7.0004,-3.1344 -7.0004,-7.00087 0,-3.86646 3.1342,-7.00086 7.0004,-7.00086 3.8663,0 7.0005,3.1344 7.0005,7.00086 0,3.86647 -3.1342,7.00087 -7.0005,7.00087 z"
       id="path39571" />
    <path
       style="fill:none;stroke:#000000;stroke-width:0.42297414000000000;stroke-miterlimit:4;stroke-opacity:1"
       d="m 306.60044,-243.66771 c -3.92597,0 -7.09375,3.13651 -7.09375,7.0625 l 0,15.65625 c -5.23717,2.61665 -8.84375,8.01598 -8.84375,14.28125 0,8.82149 7.13907,15.96875 15.9375,15.96875 8.79844,0 15.90625,-7.14726 15.90625,-15.96875 0,-6.27156 -3.59802,-11.66762 -8.84375,-14.28125 l 0,-15.65625 c 0,-3.92599 -3.13651,-7.0625 -7.0625,-7.0625 z"
       id="path15266"
       inkscape:connector-curvature="0" />
    <rect
       style="fill:none;stroke:#000000;stroke-width:0.17716534;stroke-miterlimit:4;stroke-opacity:1;stroke-dasharray:none"
       id="rect3831"
       width="35.433071"
       height="35.433071"
       x="100.3368"
       y="808.48297" />
    <text
       xml:space="preserve"
       style="font-size:40px;font-style:normal;font-weight:normal;line-height:125%;letter-spacing:0px;word-spacing:0px;fill:#000000;fill-opacity:1;stroke:none;font-family:Sans"
       x="157.02966"
       y="843.91602"
       id="text3841"
       sodipodi:linespacing="125%"><tspan
         sodipodi:role="line"
         id="tspan3843"
         x="157.02966"
         y="843.91602"
         style="font-size:14px">scale: square = 10mm</tspan><tspan
         sodipodi:role="line"
         x="157.02966"
         y="861.41602"
         style="font-size:14px"
         id="tspan3845">key:</tspan><tspan
         sodipodi:role="line"
         x="157.02966"
         y="878.91602"
         style="font-size:14px"
         id="tspan3847">green = vector etch</tspan><tspan
         sodipodi:role="line"
         x="157.02966"
         y="896.41608"
         style="font-size:14px"
         id="tspan3849">black = cut</tspan><tspan
         sodipodi:role="line"
         x="157.02966"
         y="913.91608"
         style="font-size:14px"
         id="tspan4596" /><tspan
         sodipodi:role="line"
         x="157.02966"
         y="931.41608"
         style="font-size:14px"
         id="tspan3851" /><tspan
         sodipodi:role="line"
         x="157.02966"
         y="948.91608"
         style="font-size:14px"
         id="tspan5976" /><tspan
         sodipodi:role="line"
         x="157.02966"
         y="966.41608"
         style="font-size:14px"
         id="tspan4290" /></text>
    <text
       xml:space="preserve"
       style="font-size:40px;font-style:normal;font-weight:normal;line-height:125%;letter-spacing:0px;word-spacing:0px;fill:#000000;fill-opacity:1;stroke:none;font-family:Sans"
       x="1114.0977"
       y="709.56116"
       id="text4412-9"
       sodipodi:linespacing="125%"><tspan
         sodipodi:role="line"
         id="tspan4414-7"
         x="1114.0977"
         y="709.56116">Sheet stock: 3mm white frosted acrylic</tspan></text>
    <text
       xml:space="preserve"
       style="font-size:40px;font-style:normal;font-weight:normal;line-height:125%;letter-spacing:0px;word-spacing:0px;fill:#000000;fill-opacity:1;stroke:none;font-family:Sans"
       x="65.997452"
       y="515.89459"
       id="text4412-9-3"
       sodipodi:linespacing="125%"><tspan
         sodipodi:role="line"
         id="tspan4414-7-6"
         x="65.997452"
         y="515.89459">Sheet stock: 3mm black acrylic</tspan></text>
  </g>
</svg>
